<?xml version="1.0" encoding="utf-8"?>
<!-- Generator: Adobe Illustrator 16.0.0, SVG Export Plug-In . SVG Version: 6.00 Build 0)  -->
<!DOCTYPE svg PUBLIC "-//W3C//DTD SVG 1.1//EN" "http://www.w3.org/Graphics/SVG/1.1/DTD/svg11.dtd">
<svg version="1.1" xmlns="http://www.w3.org/2000/svg" xmlns:xlink="http://www.w3.org/1999/xlink" x="0px" y="0px"
	 width="170.152px" height="59.622px" viewBox="0 0 170.152 59.622" enable-background="new 0 0 170.152 59.622"
	 xml:space="preserve">
<g id="푸라닭폰트">
	<g>
		<path d="M47.052,58.036V41.862h-22.01l-1.902-1.903v-3.806h58.226v5.709H58.088v16.173H47.052z M75.975,16.935
			c0,2.283-0.55,4.367-1.649,6.248c-1.1,1.882-2.664,3.489-4.693,4.821c-2.03,1.332-4.482,2.357-7.358,3.076
			c-2.875,0.72-6.11,1.079-9.705,1.079c-3.594,0-6.829-0.359-9.704-1.079c-2.876-0.718-5.328-1.744-7.357-3.076
			c-2.03-1.332-3.595-2.938-4.694-4.821c-1.1-1.881-1.649-3.964-1.649-6.248c0-2.284,0.549-4.354,1.649-6.216
			c1.099-1.86,2.664-3.457,4.694-4.789c2.03-1.332,4.481-2.367,7.357-3.107c2.875-0.74,6.11-1.11,9.704-1.11
			c3.594,0,6.829,0.371,9.705,1.11c2.875,0.74,5.328,1.776,7.358,3.107c2.03,1.333,3.593,2.929,4.693,4.789
			C75.424,12.581,75.975,14.651,75.975,16.935z M64.811,16.935c0-2.917-1.089-5.232-3.267-6.945
			c-2.178-1.712-5.169-2.569-8.975-2.569c-3.805,0-6.797,0.856-8.975,2.569c-2.179,1.713-3.267,4.028-3.267,6.945
			c0,2.918,1.088,5.233,3.267,6.945c2.177,1.713,5.169,2.569,8.975,2.569c3.806,0,6.797-0.856,8.975-2.569
			C63.722,22.168,64.811,19.853,64.811,16.935z"/>
		<path d="M109.908,2.41c0,2.03-0.286,4.039-0.857,6.026c-0.57,1.988-1.385,3.975-2.442,5.962c3.003,1.607,5.804,3.383,8.405,5.328
			c2.601,1.945,5.147,4.186,7.643,6.723l-8.246,5.709c-1.607-2.241-3.309-4.418-5.104-6.534c-1.798-2.114-3.817-4.186-6.059-6.215
			c-2.156,2.791-4.693,5.37-7.611,7.738c-2.917,2.369-6.131,4.462-9.641,6.279l-3.488-4.123c2.748-1.945,5.083-3.901,7.008-5.867
			c1.924-1.966,3.499-3.869,4.726-5.708c1.226-1.839,2.114-3.604,2.665-5.296c0.549-1.69,0.824-3.213,0.824-4.566
			c0-0.846-0.339-1.374-1.015-1.586l-2.474-0.698l0.761-3.806L109.908,2.41z M138.958,46.936c0,2.031-0.519,3.838-1.555,5.423
			c-1.037,1.585-2.517,2.918-4.44,3.997c-1.924,1.078-4.281,1.892-7.072,2.442c-2.791,0.549-5.942,0.824-9.451,0.824
			c-3.51,0-6.661-0.275-9.451-0.824c-2.791-0.55-5.159-1.364-7.104-2.442c-1.945-1.079-3.424-2.411-4.439-3.997
			s-1.523-3.393-1.523-5.423c0-2.029,0.508-3.826,1.523-5.391c1.015-1.563,2.495-2.887,4.439-3.964
			c1.945-1.079,4.313-1.903,7.104-2.474c2.791-0.571,5.941-0.857,9.451-0.857c3.509,0,6.66,0.286,9.451,0.857
			c2.791,0.571,5.147,1.395,7.072,2.474c1.923,1.077,3.403,2.4,4.44,3.964C138.44,43.11,138.958,44.907,138.958,46.936z
			 M127.921,46.936c0-0.929-0.253-1.817-0.761-2.663c-0.507-0.846-1.247-1.586-2.219-2.221c-0.974-0.634-2.168-1.142-3.584-1.521
			c-1.417-0.38-3.056-0.571-4.916-0.571c-1.862,0-3.5,0.191-4.916,0.571c-1.418,0.38-2.612,0.888-3.584,1.521
			c-0.973,0.634-1.712,1.375-2.219,2.221c-0.508,0.846-0.762,1.734-0.762,2.663c0,0.931,0.254,1.819,0.762,2.665
			c0.507,0.846,1.246,1.585,2.219,2.22c0.972,0.633,2.166,1.141,3.584,1.522c1.416,0.38,3.054,0.57,4.916,0.57
			c1.859,0,3.498-0.19,4.916-0.57c1.416-0.381,2.61-0.889,3.584-1.522c0.972-0.635,1.712-1.375,2.219-2.22
			C127.668,48.755,127.921,47.867,127.921,46.936z M138.577,1.079c-0.085,1.057-0.148,2.104-0.19,3.139
			c-0.043,1.037-0.063,2.083-0.063,3.14v26.576h-11.036V16.047h-9.896l-1.903-1.902v-3.933h11.798V7.929
			c-0.213-1.057-0.499-1.861-0.857-2.411c-0.36-0.549-0.962-0.993-1.808-1.332l-2.093-0.761L123.165,0L138.577,1.079z"/>
	</g>
</g>
<g id="제주명조몬트">
	<g>
		<path d="M20.388,58.486c-4.947-0.732-8.41-2.301-10.388-4.71c-1.291-1.677-1.936-3.763-1.936-6.258v-9.227
			c0-2.15-0.387-3.72-1.161-4.709c-0.172-0.171-0.345-0.312-0.516-0.419c-0.173-0.107-0.366-0.226-0.581-0.355
			C4.43,31.818,2.494,31.323,0,31.323V29.13c3.441,0,5.742-0.752,6.904-2.258c0.774-0.946,1.161-2.752,1.161-5.419v-8.517
			c0-2.323,0.581-4.236,1.742-5.742c0.3-0.43,0.688-0.881,1.161-1.355c2.236-1.978,5.355-3.204,9.355-3.678v2.064
			c-1.162,0.173-2.194,0.442-3.097,0.807c-0.903,0.366-1.677,0.871-2.323,1.516c-0.216,0.258-0.419,0.506-0.613,0.742
			c-0.193,0.237-0.377,0.484-0.548,0.742c-0.947,1.333-1.419,3.226-1.419,5.677v8.259c0,0.43-0.022,0.753-0.064,0.968
			c-0.216,2.022-0.71,3.548-1.484,4.581c-0.646,1.119-2,2.022-4.065,2.71c1.72,0.516,3.01,1.269,3.871,2.258
			c1.162,1.377,1.742,3.12,1.742,5.227v9.097c0,2.452,0.494,4.365,1.484,5.743c0.171,0.258,0.355,0.494,0.548,0.709
			c0.194,0.215,0.397,0.43,0.613,0.645c1.333,1.247,3.139,2.086,5.419,2.517V58.486z"/>
	</g>
	<g>
		<path d="M170.152,31.323c-3.355,0-5.657,0.753-6.904,2.258c-0.774,0.99-1.162,2.56-1.162,4.709v9.227
			c0,2.495-0.645,4.581-1.936,6.258c-0.129,0.215-0.28,0.387-0.452,0.516c-0.172,0.129-0.366,0.258-0.581,0.387
			c-2.108,1.892-5.205,3.162-9.291,3.807v-2.064c2.28-0.474,4.065-1.313,5.355-2.517c0.215-0.215,0.42-0.43,0.613-0.645
			c0.193-0.215,0.376-0.452,0.548-0.709c0.989-1.248,1.484-3.162,1.484-5.743v-9.097c0-2.107,0.602-3.849,1.807-5.227
			c0.86-0.989,2.129-1.742,3.807-2.258c-2.064-0.688-3.419-1.591-4.064-2.71c-0.775-1.032-1.27-2.559-1.484-4.581
			c-0.043-0.215-0.065-0.538-0.065-0.968v-8.259c0-1.161-0.108-2.215-0.322-3.161c-0.216-0.946-0.56-1.784-1.032-2.516
			c-0.173-0.258-0.355-0.505-0.549-0.742c-0.193-0.236-0.398-0.484-0.613-0.742c-0.645-0.645-1.419-1.15-2.323-1.516
			c-0.903-0.365-1.936-0.634-3.097-0.807V2.161c4,0.474,7.098,1.7,9.291,3.678c0.215,0.216,0.408,0.441,0.581,0.678
			c0.171,0.237,0.365,0.462,0.581,0.677c1.161,1.506,1.742,3.419,1.742,5.742v8.517c0,2.667,0.387,4.474,1.162,5.419
			c0.3,0.301,0.666,0.56,1.097,0.774c1.376,0.99,3.312,1.484,5.807,1.484V31.323z"/>
	</g>
</g>
</svg>
