<?xml version="1.0" encoding="utf-8"?>
<!-- Generator: Adobe Illustrator 16.0.0, SVG Export Plug-In . SVG Version: 6.00 Build 0)  -->
<!DOCTYPE svg PUBLIC "-//W3C//DTD SVG 1.1//EN" "http://www.w3.org/Graphics/SVG/1.1/DTD/svg11.dtd">
<svg version="1.1" id="Layer_1" xmlns="http://www.w3.org/2000/svg" xmlns:xlink="http://www.w3.org/1999/xlink" x="0px" y="0px"
	 width="499.242px" height="79.546px" viewBox="0 0 499.242 79.546" enable-background="new 0 0 499.242 79.546"
	 xml:space="preserve">
<g>
	<path d="M20.31,5.843c5.4,0,10.334,0.871,14.805,2.61c4.469,1.741,8.28,4.14,11.43,7.2s5.594,6.675,7.335,10.845
		c1.74,4.171,2.61,8.685,2.61,13.545c0,4.86-0.87,9.375-2.61,13.545c-1.741,4.171-4.185,7.785-7.335,10.845s-6.961,5.46-11.43,7.2
		c-4.47,1.741-9.405,2.61-14.805,2.61H1.14v-68.4H20.31z M13.02,15.923v48.24h7.29c3.6,0,6.899-0.599,9.9-1.8
		c3-1.2,5.564-2.88,7.695-5.04c2.129-2.16,3.78-4.709,4.95-7.65c1.17-2.939,1.755-6.15,1.755-9.63c0-3.479-0.585-6.689-1.755-9.63
		c-1.17-2.939-2.821-5.49-4.95-7.65c-2.13-2.16-4.695-3.839-7.695-5.04c-3.001-1.2-6.3-1.8-9.9-1.8H13.02z"/>
	<path d="M78.719,64.163h36.27v10.08h-48.15v-68.4h46.71v10.08h-34.83v18.27h28.71v9.99h-28.71V64.163z"/>
	<path d="M157.288,21.502c-2.041-2.34-4.306-4.14-6.795-5.4c-2.49-1.26-5.026-1.89-7.605-1.89c-3.3,0-5.746,0.81-7.335,2.43
		c-1.59,1.62-2.385,3.541-2.385,5.76c0,2.041,0.524,3.795,1.575,5.265c1.049,1.471,3.015,2.835,5.895,4.095l8.82,3.87
		c2.34,1.021,4.545,2.101,6.615,3.24c2.07,1.141,3.899,2.475,5.49,4.005c1.589,1.53,2.849,3.316,3.78,5.355
		c0.93,2.04,1.395,4.5,1.395,7.38c0,2.76-0.571,5.37-1.71,7.83c-1.141,2.461-2.745,4.621-4.815,6.48
		c-2.07,1.86-4.576,3.33-7.515,4.41c-2.94,1.08-6.181,1.62-9.72,1.62c-3.06,0-5.94-0.495-8.64-1.485c-2.7-0.99-5.13-2.25-7.29-3.78
		c-2.16-1.53-4.036-3.224-5.625-5.085c-1.59-1.859-2.835-3.629-3.735-5.31l7.56-7.29c1.74,3.78,4.185,6.871,7.335,9.27
		c3.15,2.401,6.615,3.6,10.395,3.6c3.659,0,6.555-0.945,8.685-2.835c2.129-1.89,3.195-4.365,3.195-7.425
		c0-0.779-0.076-1.589-0.225-2.43c-0.15-0.839-0.526-1.679-1.125-2.52c-0.601-0.839-1.5-1.71-2.7-2.61
		c-1.201-0.9-2.821-1.769-4.86-2.61l-9-3.78c-2.88-1.199-5.326-2.504-7.335-3.915c-2.011-1.409-3.631-2.925-4.86-4.545
		c-1.23-1.62-2.115-3.33-2.655-5.13c-0.54-1.8-0.81-3.69-0.81-5.67c0-2.579,0.509-4.979,1.53-7.2
		c1.02-2.219,2.475-4.154,4.365-5.805c1.89-1.649,4.154-2.939,6.795-3.87c2.64-0.93,5.61-1.395,8.91-1.395
		c4.62,0,8.76,0.931,12.42,2.79c3.659,1.86,6.78,4.38,9.36,7.56L157.288,21.502z"/>
	<path d="M185.547,74.243h-11.88v-68.4h11.88V74.243z"/>
	<path d="M227.937,14.213c-3.06,0-5.91,0.616-8.55,1.845c-2.641,1.23-4.95,2.97-6.93,5.22s-3.541,4.965-4.68,8.145
		c-1.141,3.181-1.71,6.72-1.71,10.62c0,3.901,0.57,7.44,1.71,10.62c1.139,3.181,2.7,5.895,4.68,8.145s4.289,3.991,6.93,5.22
		c2.64,1.23,5.49,1.845,8.55,1.845c3.119,0,5.925-0.495,8.415-1.485c2.489-0.99,4.635-2.309,6.435-3.96
		c1.8-1.649,3.225-3.584,4.275-5.805c1.049-2.219,1.724-4.59,2.025-7.11h-19.62v-10.08h31.41c0.059,0.42,0.09,0.841,0.09,1.26v1.17
		c0,5.22-0.72,10.035-2.16,14.445s-3.57,8.221-6.39,11.43c-2.821,3.21-6.286,5.715-10.395,7.515c-4.11,1.8-8.806,2.7-14.085,2.7
		c-4.801,0-9.256-0.871-13.365-2.61c-4.111-1.74-7.666-4.185-10.665-7.335c-3.001-3.15-5.371-6.93-7.11-11.34
		c-1.741-4.41-2.61-9.284-2.61-14.625c0-5.339,0.869-10.215,2.61-14.625c1.74-4.41,4.109-8.19,7.11-11.34
		c3-3.15,6.554-5.594,10.665-7.335c4.109-1.74,8.564-2.61,13.365-2.61c6.719,0,12.6,1.561,17.64,4.68
		c5.04,3.121,9,7.411,11.88,12.87l-9.18,5.85c-1.921-4.019-4.666-7.245-8.235-9.675C236.472,15.428,232.437,14.213,227.937,14.213z"
		/>
	<path d="M280.856,27.353v46.89h-11.88v-68.4h10.89l31.23,47.25V5.843h11.88v68.4h-10.891L280.856,27.353z"/>
	<path d="M380.755,33.923l-2.159-4.59l0.18,4.59v40.32h-11.88v-68.4h11.25l21.42,39.6l1.8,3.96l1.8-3.96l21.42-39.6h11.25v68.4
		h-11.88v-40.32l0.181-4.59l-2.16,4.59l-16.83,30.96h-7.561L380.755,33.923z"/>
	<path d="M462.114,64.163h36.27v10.08h-48.149v-68.4h46.71v10.08h-34.83v18.27h28.71v9.99h-28.71V64.163z"/>
</g>
</svg>
